<?xml version="1.0" standalone="no"?><!DOCTYPE svg PUBLIC "-//W3C//DTD SVG 1.1//EN" "http://www.w3.org/Graphics/SVG/1.1/DTD/svg11.dtd"><svg t="1744380530071" class="icon" viewBox="0 0 1024 1024" version="1.1" xmlns="http://www.w3.org/2000/svg" p-id="3704" width="200" height="200" xmlns:xlink="http://www.w3.org/1999/xlink"><path d="M755.454093 303.951412c-9.038852 0-18.067706-3.449562-24.966831-10.338687-13.78825-13.78825-13.78825-36.135412 0-49.923662l93.618115-93.618115c13.78825-13.78825 36.135412-13.78825 49.923662 0s13.78825 36.135412 0 49.923662l-93.618115 93.618115c-6.889125 6.899124-15.927978 10.338687-24.956831 10.338687z m233.210393 243.419098H856.271294c-19.487526 0-35.305518-15.807993-35.305518-35.305518s15.807993-35.305518 35.305518-35.305518h132.393192c19.487526 0 35.305518 15.807993 35.305518 35.305518s-15.807993 35.305518-35.305518 35.305518zM849.062209 884.387724c-9.038852 0-18.067706-3.449562-24.96683-10.338687l-93.618115-93.618115c-13.78825-13.78825-13.78825-36.135412 0-49.923662s36.135412-13.78825 49.923662 0l93.618115 93.618115c13.78825 13.78825 13.78825 36.135412 0 49.923662a35.179534 35.179534 0 0 1-24.956832 10.338687zM512.034996 1024c-19.487526 0-35.305518-15.807993-35.305518-35.305518V856.291291c0-19.487526 15.807993-35.305518 35.305518-35.305518s35.305518 15.807993 35.305517 35.305518v132.393192c0 19.507523-15.817992 35.315517-35.305517 35.315517zM175.007782 884.387724c-9.038852 0-18.067706-3.449562-24.96683-10.338687-13.78825-13.78825-13.78825-36.135412 0-49.923662l93.618115-93.618115c13.78825-13.78825 36.135412-13.78825 49.923662 0s13.78825 36.135412 0 49.923662l-93.618115 93.618115c-6.889125 6.889125-15.927978 10.338687-24.956832 10.338687z m-7.209085-337.017214H35.405505C15.897982 547.37051 0.099987 531.552518 0.099987 512.064992c0-19.487526 15.807993-35.305518 35.305518-35.305518h132.393192c19.487526 0 35.305518 15.807993 35.305518 35.305518s-15.797994 35.305518-35.305518 35.305518z m100.817201-243.419098c-9.038852 0-18.067706-3.449562-24.96683-10.338687l-93.618115-93.618115c-13.78825-13.78825-13.78825-36.135412 0-49.923662s36.135412-13.78825 49.923662 0l93.618115 93.618115c13.78825 13.78825 13.78825 36.135412 0 49.923662-6.889125 6.899124-15.917979 10.338687-24.956832 10.338687zM512.034996 203.134211c-19.487526 0-35.305518-15.807993-35.305518-35.305517V35.435501c0-19.507523 15.817992-35.305518 35.305518-35.305518 19.487526 0 35.305518 15.807993 35.305517 35.305518v132.393193c0 19.507523-15.817992 35.305518-35.305517 35.305517z m0 114.745433c-107.066408 0-194.175349 87.108941-194.175349 194.185348s87.108941 194.175349 194.175349 194.175349 194.185348-87.108941 194.185347-194.175349-87.11894-194.185348-194.185347-194.185348z m0 458.981731c-146.011463 0-264.796383-118.774921-264.796384-264.796383S366.023532 247.268608 512.034996 247.268608s264.796383 118.78492 264.796383 264.796384-118.78492 264.796383-264.796383 264.796383z" fill="#07bd7e" p-id="3705"></path></svg>